<?xml version="1.0" encoding="iso-8859-1"?>
<!-- Generator: Adobe Illustrator 16.0.0, SVG Export Plug-In . SVG Version: 6.00 Build 0)  -->
<!DOCTYPE svg PUBLIC "-//W3C//DTD SVG 1.1//EN" "http://www.w3.org/Graphics/SVG/1.1/DTD/svg11.dtd">
<svg version="1.1" id="Layer_1" xmlns="http://www.w3.org/2000/svg" xmlns:xlink="http://www.w3.org/1999/xlink" x="0px" y="0px"
	 width="36px" height="36px" viewBox="0 0 36 36" style="enable-background:new 0 0 36 36;" xml:space="preserve">
<path style="fill:#010101;" d="M34.869,8.733c-0.204-0.082-0.529-0.254-0.916-0.356c-0.387-0.109-0.911-0.292-1.444-0.337
	c-0.54-0.056-1.149-0.073-1.816-0.041c-0.649,0.053-1.311,0.191-2.018,0.374c-0.708,0.183-1.356,0.487-2.045,0.819
	c-0.675,0.344-1.289,0.772-1.905,1.24c-0.583,0.482-1.134,1.017-1.639,1.584c-0.471,0.583-0.939,1.184-1.299,1.824
	c-0.372,0.637-0.692,1.291-0.924,1.961c-0.496,1.326-0.693,2.691-0.714,3.906c0.002,0.616,0.038,1.188,0.115,1.715
	c0.066,0.521,0.197,1.005,0.298,1.395c0.042,0.184,0.099,0.358,0.155,0.514c0.099-0.209,0.207-0.43,0.328-0.67
	c0.599-1.188,1.471-2.733,2.491-4.181c0.508-0.725,1.065-1.413,1.609-2.037c0.287-0.3,0.565-0.587,0.829-0.861
	c0.281-0.254,0.548-0.494,0.793-0.715c0.264-0.199,0.507-0.38,0.722-0.542c0.206-0.171,0.422-0.271,0.584-0.373
	c0.33-0.195,0.518-0.307,0.518-0.307s-0.179,0.126-0.492,0.346c-0.153,0.116-0.356,0.229-0.548,0.415
	c-0.198,0.176-0.422,0.373-0.667,0.589c-0.225,0.237-0.467,0.493-0.725,0.764c-0.236,0.288-0.485,0.592-0.743,0.906
	c-0.485,0.654-0.975,1.369-1.415,2.117c-0.886,1.49-1.616,3.065-2.107,4.266c-0.076,0.187-0.145,0.358-0.208,0.522
	c-0.597,1.383-0.917,2.813-1.076,4.135c-0.399-1.289-0.981-2.66-1.836-3.931c-0.092-0.15,0.772-0.601,0.908-0.413
	c0.027-0.164,0.051-0.346,0.058-0.534c0.028-0.401,0.068-0.9,0.038-1.425c-0.021-0.531-0.091-1.102-0.202-1.707
	c-0.244-1.19-0.688-2.497-1.419-3.709c-0.351-0.615-0.786-1.201-1.268-1.758c-0.472-0.563-1.043-1.068-1.612-1.555
	c-0.601-0.465-1.241-0.889-1.902-1.257c-0.692-0.347-1.374-0.654-2.101-0.869c-0.739-0.2-1.431-0.38-2.161-0.43
	c-0.729-0.051-1.404-0.064-2.052,0.003C6.396,10.212,5.8,10.34,5.28,10.494c-0.516,0.143-0.998,0.417-1.357,0.596
	c-0.362,0.173-0.65,0.401-0.835,0.521c-0.188,0.131-0.288,0.221-0.288,0.221s0.061,0.117,0.175,0.339
	c0.118,0.191,0.27,0.528,0.47,0.84c0.184,0.316,0.405,0.702,0.658,1.145c0.239,0.431,0.499,0.87,0.771,1.301
	c0.273,0.44,0.555,0.923,0.86,1.347c0.304,0.431,0.621,0.908,0.969,1.306c0.686,0.853,1.477,1.633,2.367,2.337
	c0.439,0.371,0.922,0.673,1.405,1c0.487,0.316,1.008,0.587,1.532,0.853c0.535,0.249,1.071,0.489,1.625,0.683
	c0.557,0.193,1.098,0.377,1.644,0.517c0.54,0.145,1.07,0.261,1.562,0.351c0.336,0.069,0.661,0.11,0.964,0.148
	c2.746,3.845,2.756,8.97,2.756,9.034l0.153,0.001c0.012,0.068,0.021,0.121,0.025,0.141l0.689-0.134h0.042c0-0.002,0-0.008,0-0.009
	l0.162-0.031c-0.013-0.064-0.943-5.104,1.05-9.387c0.292-0.094,0.603-0.193,0.921-0.323c0.467-0.18,0.967-0.39,1.471-0.632
	c0.511-0.237,1.01-0.517,1.521-0.809c0.509-0.293,0.993-0.627,1.472-0.971c0.466-0.357,0.929-0.718,1.35-1.118
	c0.415-0.411,0.834-0.796,1.198-1.241c0.746-0.855,1.38-1.768,1.898-2.731c0.269-0.454,0.493-0.983,0.712-1.461
	c0.222-0.474,0.411-1,0.598-1.482c0.188-0.473,0.363-0.953,0.519-1.42c0.168-0.481,0.315-0.901,0.438-1.246
	c0.139-0.343,0.227-0.702,0.307-0.912c0.072-0.238,0.11-0.364,0.11-0.364S35.078,8.829,34.869,8.733z M9.773,16.018l2.702-0.004
	l-3.831-3.026h1.6l5.547,4.189h-2.684l3.847,3.848L9.773,16.018z"/>
</svg>
